<?xml version="1.0" encoding="utf-8"?>
<!-- Generator: Adobe Illustrator 20.1.0, SVG Export Plug-In . SVG Version: 6.00 Build 0)  -->
<svg version="1.1" id="Layer_1" xmlns="http://www.w3.org/2000/svg" xmlns:xlink="http://www.w3.org/1999/xlink" x="0px" y="0px"
     viewBox="0 0 130 33" style="enable-background:new 0 0 130 33;" xml:space="preserve">
<path id="path0_fill" d="M0,11h2.9v11H0V11z"/>
<path id="path1_fill" d="M8.7,11h2.8l2.7,4.8l2.6-4.8h2.8L20,22h-3l-0.3-6.4l-1.9,3.8h-1.6l-2.2-3.8L10.9,22H8.2L8.7,11z"/>
<path id="path2_fill" d="M28.4,11h3.3l3.9,11h-3.2l-0.7-2.3h-3.7L27.4,22h-3L28.4,11z M31.2,17.6l-1.2-4l-1.3,4H31.2z"/>
<path id="path3_fill" d="M45.2,15.7h4.5v5c-0.7,0.6-1.4,1-2.3,1.2c-0.8,0.2-1.7,0.4-2.6,0.4c-0.9,0-1.7-0.1-2.4-0.4
    s-1.3-0.6-1.8-1.1c-0.5-0.5-0.9-1.1-1.1-1.8c-0.3-0.7-0.4-1.5-0.4-2.4c0-0.8,0.1-1.6,0.4-2.3c0.3-0.7,0.7-1.3,1.2-1.8
    s1.1-0.9,1.8-1.2c0.7-0.3,1.5-0.4,2.3-0.4c0.9,0,1.8,0.2,2.6,0.4c0.8,0.3,1.4,0.8,2,1.5l-1.9,1.9c-0.3-0.3-0.7-0.6-1.1-0.8
    s-0.8-0.3-1.3-0.3c-0.5,0-0.9,0.1-1.2,0.2c-0.4,0.2-0.7,0.4-0.9,0.7c-0.2,0.3-0.4,0.6-0.6,1s-0.2,0.8-0.2,1.2c0,0.5,0.1,0.9,0.2,1.3
    c0.1,0.4,0.3,0.7,0.6,1c0.2,0.3,0.6,0.5,0.9,0.6c0.4,0.1,0.8,0.2,1.2,0.2c0.4,0,0.7,0,1-0.1s0.6-0.2,0.9-0.5v-1h-1.9L45.2,15.7
    L45.2,15.7z"/>
<path id="path4_fill" d="M55,11H58v11H55V11z"/>
<path id="path5_fill" d="M63.4,11h2.7l4.2,6.1V11h2.9v11h-2.5l-4.4-6.3V22h-2.9V11z"/>
<path id="path6_fill" d="M78.6,11h7.9v2.5h-5v1.7h4.1v2.4h-4.1v1.9h5.4V22h-8.3L78.6,11L78.6,11z"/>
<path id="path7_fill" d="M111.6,16.4l-3.7-5.4h3.6l1.8,2.9l1.8-2.9h3.2l-3.4,5.1l4.1,5.9h-3.6l-2.2-3.4l-2.1,3.4h-3.2L111.6,16.4z"
    />
<path id="path8_fill" d="M97,0v33h33V0H97z M100.9,29V4H126V29H100.9z"/>
</svg>
