<?xml version="1.0" encoding="UTF-8" standalone="no"?>
<!-- Created with Inkscape (http://www.inkscape.org/) -->

<svg
   xmlns:dc="http://purl.org/dc/elements/1.1/"
   xmlns:cc="http://creativecommons.org/ns#"
   xmlns:rdf="http://www.w3.org/1999/02/22-rdf-syntax-ns#"
   xmlns:svg="http://www.w3.org/2000/svg"
   xmlns="http://www.w3.org/2000/svg"
   xmlns:sodipodi="http://sodipodi.sourceforge.net/DTD/sodipodi-0.dtd"
   xmlns:inkscape="http://www.inkscape.org/namespaces/inkscape"
   width="69.239723mm"
   height="15.325078mm"
   viewBox="0 0 245.33761 54.301457"
   id="svg2"
   version="1.1"
   inkscape:version="0.91 r13725"
   sodipodi:docname="imaginex.svg">
  <defs
     id="defs4" />
  <sodipodi:namedview
     id="base"
     pagecolor="#ffffff"
     bordercolor="#666666"
     borderopacity="1.0"
     inkscape:pageopacity="0.0"
     inkscape:pageshadow="2"
     inkscape:zoom="0.7"
     inkscape:cx="51.714271"
     inkscape:cy="-247.82566"
     inkscape:document-units="px"
     inkscape:current-layer="layer1"
     showgrid="false"
     showguides="false"
     fit-margin-top="0"
     fit-margin-left="0"
     fit-margin-right="0"
     fit-margin-bottom="0"
     inkscape:window-width="1301"
     inkscape:window-height="744"
     inkscape:window-x="65"
     inkscape:window-y="24"
     inkscape:window-maximized="1" />
  <metadata
     id="metadata7">
    <rdf:RDF>
      <cc:Work
         rdf:about="">
        <dc:format>image/svg+xml</dc:format>
        <dc:type
           rdf:resource="http://purl.org/dc/dcmitype/StillImage" />
        <dc:title></dc:title>
      </cc:Work>
    </rdf:RDF>
  </metadata>
  <g
     inkscape:label="Layer 1"
     inkscape:groupmode="layer"
     id="layer1"
     transform="translate(580.9149,-460.8059)">
    <path
       style="fill:#000000"
       d="m -419.89154,514.84085 c -0.0566,-0.0559 -0.11057,-12.23657 -0.12,-27.06824 l -0.0172,-26.96671 27.48544,0 27.48545,0 0,27.15073 0,27.15073 -27.36545,-0.0825 c -15.051,-0.0453 -27.41174,-0.12817 -27.4683,-0.18401 z m 48.19608,-27.03607 0,-20.44576 -20.84229,0 -20.84229,0 0,20.44576 0,20.44576 20.84229,0 20.84229,0 0,-20.44576 z m -30.00228,9.01188 c 0,-0.0894 1.3323,-2.1241 2.96066,-4.52165 1.62837,-2.39753 2.96254,-4.48239 2.96483,-4.63301 0.003,-0.21775 -2.43021,-3.79064 -5.62599,-8.26003 -0.35452,-0.49581 -0.28267,-0.50944 2.6855,-0.50944 l 3.04977,0 1.45561,2.26033 1.45561,2.26033 1.40403,-2.26033 1.40403,-2.26033 2.7562,0 2.7562,0 -2.61071,3.86635 c -1.43589,2.12648 -2.68992,3.99869 -2.78673,4.16042 -0.0968,0.16175 1.31506,2.39896 3.13748,4.97164 1.82242,2.57265 3.31348,4.76994 3.31348,4.88286 0,0.11296 -1.31808,0.20536 -2.92908,0.20536 l -2.92908,0 -1.78367,-2.7502 c -0.98101,-1.51261 -1.84339,-2.74743 -1.91641,-2.74405 -0.073,0.003 -0.78989,1.07906 -1.59304,2.3904 -0.80316,1.31135 -1.61817,2.54618 -1.81114,2.74405 -0.2487,0.25505 -1.07971,0.3598 -2.8542,0.3598 -1.37684,0 -2.50335,-0.0731 -2.50335,-0.1625 z m -107.0521,0.1717 c -1.56819,-0.28161 -3.7718,-1.45196 -4.63022,-2.45916 -1.81063,-2.12439 -2.71114,-5.41316 -2.25234,-8.2258 0.53314,-3.26827 2.21584,-5.64328 4.97464,-7.02136 2.91591,-1.45649 7.65494,-1.15413 10.32387,0.65875 2.02326,1.37433 2.02498,1.40376 0.18875,3.21662 l -1.63072,1.60994 -0.60638,-0.54763 c -1.6646,-1.50328 -4.06367,-1.82892 -5.90172,-0.80108 -3.29342,1.84169 -3.10392,7.60643 0.29615,9.00898 1.13225,0.46705 3.31683,0.45617 4.4767,-0.0223 0.80557,-0.33232 0.92075,-0.49626 0.92075,-1.31062 l 0,-0.93084 -1.59305,0 -1.59304,0 0,-1.83487 0,-1.83488 3.8566,0 3.85659,0 -0.0731,4.11883 -0.0731,4.11882 -1.06203,0.69235 c -0.58412,0.38076 -1.65942,0.89647 -2.38956,1.14601 -1.53312,0.52394 -5.27183,0.74449 -7.08875,0.41819 z m -71.98806,-0.18397 c -0.0974,-0.0961 -0.177,-4.16558 -0.177,-9.04331 l 0,-8.86855 2.52231,0 2.52232,0 0,9.04331 0,9.04332 -2.34531,0 c -1.28992,0 -2.42496,-0.0786 -2.52232,-0.17477 z m 13.50512,-0.0738 c -0.0926,-0.14797 -0.10141,-0.94879 -0.0195,-1.7796 0.0819,-0.8308 0.2675,-4.04663 0.41249,-7.14626 0.14499,-3.09963 0.33697,-6.37292 0.42664,-7.27397 l 0.16302,-1.63828 2.29473,0 2.29473,0 1.59056,2.81784 c 0.87482,1.54982 1.82593,3.26721 2.11359,3.81641 0.63571,1.21369 0.50179,1.35965 2.96886,-3.23523 l 1.81827,-3.38646 2.41697,-0.006 2.41698,-0.006 0.17673,2.94891 c 0.24287,4.05219 0.69138,14.70815 0.62173,14.77119 -0.0312,0.0283 -1.13207,0.0928 -2.44633,0.14344 l -2.38956,0.092 -0.19171,-4.06294 c -0.10545,-2.23462 -0.22492,-4.53477 -0.26551,-5.11144 l -0.0738,-1.0485 -1.59304,2.95514 -1.59304,2.95518 -1.32753,-0.0718 -1.32753,-0.0718 -1.59305,-2.81131 c -0.87617,-1.54623 -1.68265,-2.81426 -1.79217,-2.81785 -0.10952,-0.004 -0.21104,1.96924 -0.2256,4.38407 -0.0361,5.98767 0.0981,5.68392 -2.55139,5.777 -1.27362,0.0447 -2.22607,-0.0344 -2.3255,-0.19324 z m 26.94044,0 c 0,-0.13739 0.11069,-0.52074 0.24597,-0.85191 0.23456,-0.57416 0.81819,-2.12709 4.51154,-12.00454 0.88947,-2.37878 1.61664,-4.47636 1.61594,-4.66132 -10e-4,-0.25809 0.69278,-0.319 2.985,-0.26212 l 2.98628,0.0741 0.31607,0.91744 c 0.81094,2.35389 3.05818,8.622 4.32294,12.05775 2.04751,5.56209 2.15273,5.01414 -0.94566,4.92473 l -2.61314,-0.0754 -0.63525,-1.90872 -0.63524,-1.90871 -2.95752,0.0738 -2.95752,0.0738 -0.64411,1.9004 -0.64411,1.90041 -2.4756,0 c -1.3919,0 -2.47559,-0.10936 -2.47559,-0.2498 z m 11.10438,-7.41736 c -0.7336,-2.80004 -1.71826,-5.96171 -1.85692,-5.96242 -0.0979,0 -0.26277,0.37992 -0.36632,0.84538 -0.10355,0.46548 -0.51648,1.81686 -0.91761,3.00308 -0.40113,1.18625 -0.66443,2.22089 -0.58509,2.29921 0.0793,0.0783 0.96945,0.14241 1.97802,0.14241 1.33579,0 1.81045,-0.089 1.74792,-0.32766 z m 39.79399,7.50184 c -0.10261,-0.10129 -0.18656,-4.17503 -0.18656,-9.05276 l 0,-8.86854 2.52581,0 2.5258,0 -0.0699,8.97777 -0.0699,8.97779 -2.26938,0.075 c -1.24816,0.0412 -2.35333,-0.008 -2.45594,-0.10922 z m 13.88531,-8.8678 0,-9.0535 2.23202,0 2.23202,0 3.41,4.91484 3.41,4.91484 0.0722,-4.91484 0.0722,-4.91484 2.3872,0 2.38718,0 -0.0699,8.97777 -0.0699,8.97779 -1.99253,0.0754 -1.99252,0.0754 -3.64363,-5.15917 -3.64363,-5.1592 -0.0722,5.08378 -0.0722,5.08379 -2.32319,0.0757 -2.32318,0.0758 0,-9.05354 z m 25.22316,-0.006 0,-9.04774 6.50492,0 6.50492,0 0,1.95912 0,1.95912 -4.04898,0.0724 -4.04899,0.0723 -0.0803,1.37615 -0.0802,1.37616 3.46547,0 3.46546,0 0,1.96593 0,1.96595 -3.45159,0 -3.45159,0 0,1.43536 0,1.43535 4.44724,0.0719 4.44725,0.0718 0,2.097 0,2.097 -6.83681,0.07 -6.8368,0.07 0,-9.04775 z"
       id="path4165"
       inkscape:connector-curvature="0" />
    <text
       xml:space="preserve"
       style="font-style:normal;font-weight:normal;font-size:18.64295197px;line-height:125%;font-family:sans-serif;letter-spacing:0px;word-spacing:0px;fill:#000000;fill-opacity:1;stroke:none;stroke-width:1px;stroke-linecap:butt;stroke-linejoin:miter;stroke-opacity:1"
       x="-409.01453"
       y="453.58282"
       id="text4167"
       sodipodi:linespacing="125%"
       transform="scale(0.8830401,1.1324514)"><tspan
         sodipodi:role="line"
         id="tspan4169"
         x="-409.01453"
         y="453.58282">BC</tspan></text>
  </g>
</svg>
