<?xml version="1.0" encoding="UTF-8" standalone="no"?>
<!-- Created with Inkscape (http://www.inkscape.org/) -->

<svg
   xmlns:dc="http://purl.org/dc/elements/1.1/"
   xmlns:cc="http://creativecommons.org/ns#"
   xmlns:rdf="http://www.w3.org/1999/02/22-rdf-syntax-ns#"
   xmlns:svg="http://www.w3.org/2000/svg"
   xmlns="http://www.w3.org/2000/svg"
   xmlns:sodipodi="http://sodipodi.sourceforge.net/DTD/sodipodi-0.dtd"
   xmlns:inkscape="http://www.inkscape.org/namespaces/inkscape"
   width="140.12051mm"
   height="74.378288mm"
   viewBox="0 0 496.49001 263.54511"
   id="svg2"
   version="1.1"
   inkscape:version="0.91 r13725"
   sodipodi:docname="revenue.svg">
  <defs
     id="defs4" />
  <sodipodi:namedview
     id="base"
     pagecolor="#ffffff"
     bordercolor="#666666"
     borderopacity="1.0"
     inkscape:pageopacity="0.0"
     inkscape:pageshadow="2"
     inkscape:zoom="0.35"
     inkscape:cx="447.91079"
     inkscape:cy="128.1539"
     inkscape:document-units="px"
     inkscape:current-layer="layer1"
     showgrid="false"
     inkscape:window-width="1301"
     inkscape:window-height="744"
     inkscape:window-x="65"
     inkscape:window-y="24"
     inkscape:window-maximized="1"
     fit-margin-top="0"
     fit-margin-left="0"
     fit-margin-right="0"
     fit-margin-bottom="0" />
  <metadata
     id="metadata7">
    <rdf:RDF>
      <cc:Work
         rdf:about="">
        <dc:format>image/svg+xml</dc:format>
        <dc:type
           rdf:resource="http://purl.org/dc/dcmitype/StillImage" />
        <dc:title></dc:title>
      </cc:Work>
    </rdf:RDF>
  </metadata>
  <g
     inkscape:label="Layer 1"
     inkscape:groupmode="layer"
     id="layer1"
     transform="translate(-1313.4041,-1479.7408)">
    <path
       style="fill:#000000"
       d="m 1419.0305,1728.3999 c 0,-0.1364 0.4291,-0.4169 0.9537,-0.6235 0.5469,-0.2154 0.7935,-0.1097 0.5783,0.2478 -0.3609,0.5994 -1.532,0.8866 -1.532,0.3757 z m 3.6871,-1.8922 c 0,-0.1364 0.4292,-0.4169 0.9538,-0.6236 0.5469,-0.2154 0.7935,-0.1096 0.5783,0.2479 -0.361,0.5993 -1.5321,0.8865 -1.5321,0.3757 z m 4.1379,-2.3534 c 0.4168,-0.4311 0.9127,-0.6249 1.1019,-0.4307 0.1892,0.1942 -0.1518,0.5469 -0.7579,0.7838 -0.8758,0.3423 -0.9464,0.2698 -0.344,-0.3531 z m 3.851,-2.0618 c 0,-0.1364 0.4292,-0.417 0.9538,-0.6236 0.5468,-0.2154 0.7935,-0.1096 0.5782,0.2479 -0.3609,0.5993 -1.532,0.8865 -1.532,0.3757 z m 3.6872,-1.8923 c 0,-0.1364 0.4292,-0.4169 0.9538,-0.6235 0.5468,-0.2154 0.7935,-0.1097 0.5782,0.2478 -0.3609,0.5994 -1.532,0.8866 -1.532,0.3757 z m 3.6872,-1.8922 c 0,-0.1364 0.4292,-0.4169 0.9537,-0.6236 0.5469,-0.2154 0.7936,-0.1096 0.5783,0.2479 -0.3609,0.5993 -1.532,0.8865 -1.532,0.3757 z m -21.1555,-2.1992 c -0.2007,-0.3332 0.4287,-1.2671 1.3986,-2.0755 0.9698,-0.8082 5.6045,-5.1135 10.2993,-9.5672 13.6514,-12.9508 21.2612,-17.405 36.4388,-21.3287 6.0612,-1.567 8.9605,-1.9199 19.4158,-2.3638 10.4792,-0.4449 12.7887,-0.7268 15.6705,-1.9132 5.4517,-2.2443 13.9188,-7.0069 21.5759,-12.136 14.0627,-9.371 5.0627,-3.2529 16.3172,-12.8265 12.2842,-10.4767 15.6116,-12.1572 30.5526,-15.4305 5.5249,-1.2104 14.6772,-3.9701 23.3265,-7.0337 7.8288,-2.7729 20.4563,-6.9934 28.0611,-9.3788 7.6048,-2.3854 19.5708,-6.4476 26.5911,-9.027 7.0203,-2.5795 12.9143,-4.4407 13.0977,-4.1361 0.1835,0.3046 -0.029,0.6895 -0.4736,0.8552 -12.3971,4.6284 -29.653,10.5998 -39.0972,13.5296 -6.6726,2.07 -18.9795,6.1808 -27.3487,9.1352 -8.3692,2.9543 -18.5942,6.0969 -22.7222,6.9834 -16.7991,3.6074 -18.2052,4.3449 -34.2418,17.9582 -11.944,10.1394 -27.2494,19.8447 -36.2531,22.9887 -2.571,0.8977 -6.2481,1.2981 -15.3633,1.6729 -15.6527,0.6436 -24.835,2.8463 -35.6427,8.5501 -6.5688,3.4667 -10.8295,6.7566 -19.3577,14.9469 -10.4342,10.0208 -11.8526,11.2483 -12.2448,10.5968 z m 25.2934,-0.1542 c 0.4168,-0.4311 0.9127,-0.6249 1.1019,-0.4307 0.1892,0.1942 -0.1519,0.5469 -0.7579,0.7838 -0.8759,0.3423 -0.9465,0.2698 -0.344,-0.3531 z m 3.851,-2.0618 c 0,-0.1364 0.4292,-0.417 0.9537,-0.6236 0.5469,-0.2154 0.7936,-0.1096 0.5783,0.2479 -0.3609,0.5993 -1.532,0.8865 -1.532,0.3757 z m 3.6871,-1.8923 c 0,-0.1363 0.4292,-0.4169 0.9538,-0.6235 0.5469,-0.2154 0.7935,-0.1097 0.5783,0.2478 -0.3609,0.5994 -1.5321,0.8866 -1.5321,0.3757 z m 3.6872,-1.8922 c 0,-0.1364 0.4292,-0.4169 0.9538,-0.6236 0.5468,-0.2154 0.7935,-0.1096 0.5782,0.2479 -0.3609,0.5993 -1.532,0.8865 -1.532,0.3757 z m 4.1379,-2.3534 c 0.4168,-0.431 0.9127,-0.6249 1.1019,-0.4307 0.1892,0.1942 -0.1518,0.5469 -0.7579,0.7838 -0.8758,0.3423 -0.9464,0.2698 -0.344,-0.3531 z m 3.851,-2.0618 c 0,-0.1364 0.4292,-0.417 0.9538,-0.6236 0.5468,-0.2154 0.7935,-0.1096 0.5782,0.2479 -0.3609,0.5993 -1.532,0.8865 -1.532,0.3757 z m 3.6872,-1.8923 c 0,-0.1363 0.4292,-0.4169 0.9537,-0.6235 0.5469,-0.2154 0.7936,-0.1097 0.5783,0.2478 -0.3609,0.5994 -1.532,0.8866 -1.532,0.3757 z m 4.3017,-2.2751 c 0.507,-0.3363 1.1983,-0.6114 1.5363,-0.6114 0.338,0 0.1997,0.2751 -0.3072,0.6114 -0.507,0.3363 -1.1984,0.6114 -1.5364,0.6114 -0.338,0 -0.1997,-0.2751 0.3073,-0.6114 z m 3.5233,-1.9705 c 0.4169,-0.431 0.9127,-0.6249 1.102,-0.4307 0.1892,0.1942 -0.1519,0.5469 -0.7579,0.7838 -0.8759,0.3423 -0.9465,0.2698 -0.3441,-0.3531 z m 3.8511,-2.0618 c 0,-0.1364 0.4291,-0.417 0.9537,-0.6236 0.5469,-0.2154 0.7935,-0.1096 0.5783,0.2479 -0.3609,0.5993 -1.532,0.8865 -1.532,0.3757 z m 3.6871,-1.8923 c 0,-0.1363 0.4292,-0.4169 0.9538,-0.6235 0.5468,-0.2154 0.7935,-0.1097 0.5783,0.2479 -0.361,0.5993 -1.5321,0.8865 -1.5321,0.3756 z m 4.3017,-2.2751 c 0.507,-0.3363 1.1984,-0.6114 1.5364,-0.6114 0.338,0 0.1997,0.2751 -0.3073,0.6114 -0.507,0.3363 -1.1983,0.6114 -1.5363,0.6114 -0.338,0 -0.1997,-0.2751 0.3072,-0.6114 z m 3.6872,-2.1401 c 0,-0.1364 0.4292,-0.4169 0.9538,-0.6236 0.5468,-0.2154 0.7935,-0.1096 0.5782,0.2479 -0.3609,0.5994 -1.532,0.8865 -1.532,0.3757 z m 3.6872,-1.8922 c 0,-0.1364 0.4292,-0.417 0.9537,-0.6236 0.5469,-0.2154 0.7936,-0.1096 0.5783,0.2479 -0.3609,0.5993 -1.532,0.8865 -1.532,0.3757 z m 4.3017,-2.2751 c 0.507,-0.3363 1.1983,-0.6115 1.5363,-0.6115 0.338,0 0.1997,0.2752 -0.3072,0.6115 -0.507,0.3363 -1.1984,0.6114 -1.5364,0.6114 -0.338,0 -0.1997,-0.2751 0.3073,-0.6114 z m 3.6872,-1.8923 c 0.507,-0.3363 1.1983,-0.6114 1.5363,-0.6114 0.338,0 0.1997,0.2751 -0.3073,0.6114 -0.5069,0.3363 -1.1983,0.6115 -1.5363,0.6115 -0.338,0 -0.1997,-0.2752 0.3073,-0.6115 z m 3.6872,-2.1401 c 0,-0.1364 0.4291,-0.4169 0.9537,-0.6236 0.5469,-0.2154 0.7936,-0.1096 0.5783,0.2479 -0.3609,0.5994 -1.532,0.8865 -1.532,0.3757 z m 3.6871,-1.8922 c 0,-0.1364 0.4292,-0.417 0.9538,-0.6236 0.5469,-0.2154 0.7935,-0.1096 0.5783,0.2479 -0.361,0.5994 -1.5321,0.8865 -1.5321,0.3757 z m 4.3017,-2.2751 c 0.507,-0.3363 1.1984,-0.6115 1.5364,-0.6115 0.338,0 0.1997,0.2752 -0.3073,0.6115 -0.507,0.3363 -1.1983,0.6114 -1.5363,0.6114 -0.338,0 -0.1997,-0.2751 0.3072,-0.6114 z m 3.6872,-1.8923 c 0.507,-0.3363 1.1984,-0.6114 1.5363,-0.6114 0.338,0 0.1998,0.2751 -0.3072,0.6114 -0.507,0.3363 -1.1983,0.6115 -1.5363,0.6115 -0.338,0 -0.1998,-0.2752 0.3072,-0.6115 z m 3.6872,-1.8247 c 0,-0.3098 0.454,-0.7421 1.0088,-0.9606 0.8434,-0.3322 0.8814,-0.2399 0.2319,0.5633 -0.8849,1.0944 -1.2407,1.2084 -1.2407,0.3973 z m 3.6872,-2.2076 c 0,-0.1364 0.4292,-0.417 0.9537,-0.6236 0.5469,-0.2154 0.7936,-0.1096 0.5783,0.2479 -0.3609,0.5994 -1.532,0.8865 -1.532,0.3757 z m 4.3017,-2.2751 c 0.507,-0.3363 1.1983,-0.6115 1.5363,-0.6115 0.338,0 0.1997,0.2752 -0.3073,0.6115 -0.5069,0.3363 -1.1983,0.6114 -1.5363,0.6114 -0.338,0 -0.1997,-0.2751 0.3073,-0.6114 z m 3.6872,-1.8925 c 0.507,-0.3363 1.1983,-0.6114 1.5363,-0.6114 0.338,0 0.1997,0.2751 -0.3073,0.6114 -0.507,0.3364 -1.1983,0.6115 -1.5363,0.6115 -0.338,0 -0.1997,-0.2751 0.3073,-0.6115 z m 3.6871,-1.8247 c 0,-0.3098 0.454,-0.7421 1.0088,-0.9606 0.8434,-0.3322 0.8814,-0.2398 0.232,0.5633 -0.885,1.0945 -1.2408,1.2084 -1.2408,0.3973 z m 4.3018,-2.5905 c 0.5069,-0.3363 1.1983,-0.6114 1.5363,-0.6114 0.338,0 0.1997,0.2751 -0.3073,0.6114 -0.507,0.3363 -1.1983,0.6115 -1.5363,0.6115 -0.338,0 -0.1997,-0.2752 0.3073,-0.6115 z m 3.6871,-1.8922 c 0.507,-0.3363 1.1984,-0.6115 1.5364,-0.6115 0.3379,0 0.1997,0.2752 -0.3073,0.6115 -0.507,0.3363 -1.1983,0.6114 -1.5363,0.6114 -0.338,0 -0.1998,-0.2751 0.3072,-0.6114 z m 4.1379,-1.9693 c 0.4168,-0.431 0.9127,-0.6248 1.1019,-0.4306 0.1892,0.1942 -0.1518,0.5469 -0.7579,0.7837 -0.8758,0.3423 -0.9464,0.2699 -0.344,-0.3531 z m 3.2365,-1.7464 c 0,-0.3099 0.4539,-0.7421 1.0087,-0.9606 0.8435,-0.3322 0.8815,-0.2399 0.232,0.5633 -0.885,1.0944 -1.2407,1.2083 -1.2407,0.3973 z m 3.0726,-1.6444 c 0,-0.5204 0.4487,-0.9461 0.9971,-0.9461 0.8166,0 0.8586,0.1712 0.232,0.9461 -0.4207,0.5204 -0.8694,0.9461 -0.997,0.9461 -0.1277,0 -0.2321,-0.4257 -0.2321,-0.9461 z m 15.2481,-6.4229 c 0.4436,-0.1823 0.9736,-0.1599 1.1778,0.05 0.2042,0.2096 -0.1587,0.3586 -0.8065,0.3313 -0.7159,-0.03 -0.8616,-0.1797 -0.3713,-0.3811 z m 3.8024,-1.0786 c 0,-0.1363 0.4291,-0.4169 0.9537,-0.6235 0.5469,-0.2154 0.7936,-0.1096 0.5783,0.2479 -0.3609,0.5994 -1.532,0.8865 -1.532,0.3756 z m 4.3017,-1.6443 c 0.507,-0.3363 1.1983,-0.6115 1.5363,-0.6115 0.338,0 0.1997,0.2752 -0.3073,0.6115 -0.507,0.3363 -1.1983,0.6114 -1.5363,0.6114 -0.338,0 -0.1997,-0.2751 0.3073,-0.6114 z m 4.1594,-1.3678 c 0.3571,-0.3665 1.012,-0.5422 1.4554,-0.3906 0.4602,0.1575 0.1817,0.4434 -0.6493,0.6664 -1.0222,0.2744 -1.2621,0.1923 -0.8061,-0.2758 z m 4.3288,-1.5861 c 0.4436,-0.1822 0.9736,-0.1598 1.1778,0.05 0.2042,0.2096 -0.1587,0.3586 -0.8065,0.3312 -0.7159,-0.03 -0.8616,-0.1797 -0.3713,-0.3811 z m 3.8024,-1.0785 c 0,-0.1363 0.4291,-0.4169 0.9537,-0.6235 0.5469,-0.2154 0.7936,-0.1097 0.5783,0.2479 -0.3609,0.5994 -1.532,0.8865 -1.532,0.3756 z m 4.3017,-1.6443 c 0.507,-0.3363 1.1983,-0.6115 1.5363,-0.6115 0.338,0 0.1997,0.2752 -0.3073,0.6115 -0.507,0.3363 -1.1983,0.6114 -1.5363,0.6114 -0.338,0 -0.1997,-0.2751 0.3073,-0.6114 z m 4.1594,-1.3678 c 0.3571,-0.3665 1.012,-0.5423 1.4554,-0.3906 0.4602,0.1575 0.1817,0.4434 -0.6493,0.6664 -1.0222,0.2744 -1.2621,0.1923 -0.8061,-0.2758 z m 4.3288,-1.5861 c 0.4436,-0.1822 0.9736,-0.1598 1.1778,0.05 0.2042,0.2096 -0.1587,0.3586 -0.8065,0.3312 -0.7159,-0.03 -0.8615,-0.1797 -0.3713,-0.3811 z m 3.1878,-1.0724 c 0,-0.133 0.5535,-0.3904 1.23,-0.5719 0.6764,-0.1816 1.0749,-0.073 0.8855,0.2418 -0.3307,0.5493 -2.1155,0.8278 -2.1155,0.3301 z m 4.9163,-1.6504 c 0.507,-0.3364 1.1983,-0.6115 1.5363,-0.6115 0.338,0 0.1997,0.2751 -0.3073,0.6115 -0.507,0.3363 -1.1983,0.6114 -1.5363,0.6114 -0.338,0 -0.1997,-0.2751 0.3073,-0.6114 z m 4.1378,-1.3398 c 0.4169,-0.4311 0.9127,-0.6249 1.102,-0.4307 0.1892,0.1942 -0.1519,0.5469 -0.7579,0.7838 -0.8759,0.3423 -0.9465,0.2698 -0.3441,-0.3531 z m 4.3504,-1.6141 c 0.4436,-0.1822 0.9736,-0.1598 1.1778,0.05 0.2042,0.2096 -0.1587,0.3587 -0.8065,0.3313 -0.7159,-0.03 -0.8615,-0.1797 -0.3713,-0.3811 z m 3.1878,-1.0724 c 0,-0.133 0.5535,-0.3904 1.23,-0.5719 0.6764,-0.1816 1.0749,-0.073 0.8855,0.2418 -0.3307,0.5493 -2.1155,0.8278 -2.1155,0.3301 z m 4.9163,-1.6505 c 0.507,-0.3363 1.1983,-0.6114 1.5363,-0.6114 0.338,0 0.1997,0.2751 -0.3073,0.6114 -0.507,0.3364 -1.1983,0.6115 -1.5363,0.6115 -0.338,0 -0.1997,-0.2751 0.3073,-0.6115 z m 4.1378,-1.3397 c 0.4169,-0.4311 0.9127,-0.6249 1.102,-0.4307 0.1892,0.1942 -0.1519,0.5469 -0.7579,0.7838 -0.8759,0.3423 -0.9465,0.2698 -0.3441,-0.3531 z m 4.3504,-1.6141 c 0.4436,-0.1822 0.9736,-0.1598 1.1778,0.05 0.2042,0.2096 -0.1587,0.3587 -0.8065,0.3313 -0.7159,-0.03 -0.8615,-0.1797 -0.3713,-0.3811 z m 3.6871,-1.2615 c 0.4437,-0.1822 0.9737,-0.1598 1.1779,0.05 0.2042,0.2096 -0.1587,0.3587 -0.8066,0.3313 -0.7158,-0.03 -0.8615,-0.1797 -0.3713,-0.3811 z m 3.8024,-1.0785 c 0,-0.1364 0.4292,-0.4169 0.9538,-0.6236 0.5469,-0.2154 0.7935,-0.1096 0.5783,0.2479 -0.3609,0.5994 -1.5321,0.8865 -1.5321,0.3757 z m 4.3018,-1.6444 c 0.5069,-0.3363 1.1983,-0.6114 1.5363,-0.6114 0.338,0 0.1997,0.2751 -0.3073,0.6114 -0.507,0.3364 -1.1983,0.6115 -1.5363,0.6115 -0.338,0 -0.1997,-0.2751 0.3073,-0.6115 z m 4.801,-1.6923 c 0.4436,-0.1822 0.9736,-0.1598 1.1778,0.05 0.2042,0.2096 -0.1587,0.3587 -0.8065,0.3313 -0.7159,-0.03 -0.8615,-0.1797 -0.3713,-0.3811 z m 3.799,-0.8328 c -0.7457,-0.473 -0.7217,-0.6246 0.154,-0.9695 1.5675,-0.6174 2.6246,-0.084 1.5862,0.8009 -0.532,0.4532 -1.1909,0.517 -1.7402,0.1686 z"
       id="path4147"
       inkscape:connector-curvature="0"
       sodipodi:nodetypes="sccssccscsccsccssccssccsssssssccssssccsscsssssscsccsccssccssccscsccsccssccscscsccsccsccssccscscscsccssccsssssssssssscssscsssssssssssssccsscsssssssssssssccsssssssssssccccsccssscssccccscssssssssccsccccscssssssssccsccccsccsssssscsccccccsccsssssscsccccccccccscsssssssccccsccs" />
    <text
       xml:space="preserve"
       style="font-style:normal;font-weight:normal;font-size:9.2346096px;line-height:125%;font-family:sans-serif;letter-spacing:0px;word-spacing:0px;fill:#000000;fill-opacity:1;stroke:none;stroke-width:1px;stroke-linecap:butt;stroke-linejoin:miter;stroke-opacity:1"
       x="1442.8976"
       y="1746.1403"
       id="text4164"
       sodipodi:linespacing="125%"
       transform="scale(1.0101898,0.98991295)"><tspan
         sodipodi:role="line"
         id="tspan4166"
         x="1442.8976"
         y="1746.1403">Average annual</tspan><tspan
         sodipodi:role="line"
         x="1442.8976"
         y="1757.6835"
         id="tspan4168">growth 3.0%</tspan></text>
    <text
       xml:space="preserve"
       style="font-style:normal;font-weight:normal;font-size:9.93688869px;line-height:125%;font-family:sans-serif;letter-spacing:0px;word-spacing:0px;fill:#000000;fill-opacity:1;stroke:none;stroke-width:1px;stroke-linecap:butt;stroke-linejoin:miter;stroke-opacity:1"
       x="1742.8219"
       y="1518.3345"
       id="text4164-3"
       sodipodi:linespacing="125%"
       transform="scale(0.91455985,1.0934222)"><tspan
         sodipodi:role="line"
         id="tspan4166-6"
         x="1742.8219"
         y="1518.3345">Average annual</tspan><tspan
         sodipodi:role="line"
         x="1742.8219"
         y="1530.7556"
         id="tspan4168-7">growth 2.1%</tspan></text>
    <text
       xml:space="preserve"
       style="font-style:normal;font-weight:normal;font-size:24.90340233px;line-height:125%;font-family:sans-serif;letter-spacing:0px;word-spacing:0px;fill:#000000;fill-opacity:1;stroke:none;stroke-width:1px;stroke-linecap:butt;stroke-linejoin:miter;stroke-opacity:1"
       x="1328.7234"
       y="1720.3778"
       id="text4191"
       sodipodi:linespacing="125%"
       transform="scale(0.9870615,1.0131081)"><tspan
         sodipodi:role="line"
         id="tspan4193"
         x="1328.7234"
         y="1720.3778">38 Billion</tspan></text>
    <text
       xml:space="preserve"
       style="font-style:normal;font-weight:normal;font-size:24.90340233px;line-height:125%;font-family:sans-serif;letter-spacing:0px;word-spacing:0px;fill:#000000;fill-opacity:1;stroke:none;stroke-width:1px;stroke-linecap:butt;stroke-linejoin:miter;stroke-opacity:1"
       x="1693.158"
       y="1588.5231"
       id="text4195"
       sodipodi:linespacing="125%"
       transform="scale(0.9870615,1.0131081)"><tspan
         sodipodi:role="line"
         id="tspan4197"
         x="1693.158"
         y="1588.5231">50.1 Billion</tspan></text>
    <text
       xml:space="preserve"
       style="font-style:normal;font-weight:normal;font-size:36.29885864px;line-height:125%;font-family:sans-serif;text-align:center;letter-spacing:0px;word-spacing:0px;text-anchor:middle;fill:#000000;fill-opacity:1;stroke:none;stroke-width:1px;stroke-linecap:butt;stroke-linejoin:miter;stroke-opacity:1"
       x="1901.0421"
       y="1250.3126"
       id="text4191-5"
       sodipodi:linespacing="125%"
       transform="scale(0.8263163,1.2101903)"><tspan
         sodipodi:role="line"
         id="tspan4193-3"
         x="1901.0421"
         y="1250.3126">Provincial Government Revenue</tspan><tspan
         sodipodi:role="line"
         x="1901.0421"
         y="1295.6862"
         id="tspan4236">2006-2016</tspan></text>
  </g>
</svg>
